<svg width="1707" height="1564" viewBox="0 0 1707 1564" fill="none" xmlns="http://www.w3.org/2000/svg">
<path d="M0.400081 2.13293C-0.799919 5.33301 32.1334 70.533 49.3334 98.6664C71.2001 134.666 75.4668 140.266 116.933 188.933C156.667 235.333 174.8 253.866 212 285.466C248.667 316.533 280.4 339.066 326 366.533C338.533 374.133 348.8 380.666 349.067 381.333C349.333 382 347.467 386.533 344.933 391.6C328.933 423.733 318.933 466.666 310.8 538.666C306.533 576.133 300.667 597.6 285.333 631.333C280.267 642.266 275.2 654.933 273.867 659.333C271.067 669.333 272 683.866 276.133 696C281.6 711.733 303.333 753.333 312.533 765.333C323.733 780.133 349.6 809.066 361.067 819.6C368.667 826.8 369.733 828.266 368.533 830.266C340.267 874.533 329.6 896.933 321.333 930C314.933 954.933 312.933 975.466 312.8 1012.67C312.8 1044.53 312.933 1046.53 316.267 1058.67C324.8 1090 342.4 1128.13 362.667 1159.73C373.2 1176 374.8 1179.33 374.133 1182.8C372.8 1189.6 366.667 1203.87 355.067 1227.07C334.133 1268.93 328 1288.27 326.933 1314.27C326.133 1334.93 328.533 1346.13 337.467 1363.87C349.2 1387.33 368.133 1410.93 390.4 1429.47L396 1434.27L389.2 1442.8C367.333 1470.13 352 1499.73 352 1514.8C352 1520.67 354.267 1525.33 357.2 1525.33C357.6 1525.33 358.8 1527.2 359.6 1529.33C360.8 1532.53 361.867 1533.33 364.933 1533.33C366.933 1533.33 370.4 1534.27 372.533 1535.33C374.533 1536.4 377.2 1537.33 378.133 1537.33C381.333 1537.33 409.467 1522.27 422.667 1513.33C438.533 1502.8 463.733 1484.27 473.333 1476C488.8 1462.93 486.8 1463.6 515.2 1462.53C529.2 1461.87 556.533 1460.8 576 1460C600.133 1459.07 618.267 1457.6 633.333 1455.33C645.467 1453.47 658.133 1452 661.6 1452C673.067 1452 700.533 1456.27 736 1463.47C813.467 1479.47 823.467 1481.47 836.133 1483.07L849.2 1484.67L842.133 1500.93C838.133 1509.87 833.6 1520.93 832 1525.6C828.4 1536.13 828 1547.07 831.333 1550.67C834.933 1554.67 849.2 1561.33 854.133 1561.33C856.533 1561.33 858.933 1562 859.333 1562.67C861.733 1566.67 876.667 1560.4 898.8 1546C924.8 1529.07 937.733 1518.4 963.467 1492.53C984.267 1471.6 990.533 1466.13 997.467 1462.67C1014.53 1454.13 1028.53 1443.87 1042 1430.13C1057.73 1414.27 1065.87 1402.27 1082.67 1370.93C1111.2 1317.2 1124.13 1277.47 1124.8 1240.93L1125.07 1223.87L1149.6 1215.33C1162.93 1210.67 1184.53 1203.07 1197.33 1198.27C1210.13 1193.6 1224 1188.67 1228 1187.33C1236 1184.8 1240 1182 1240 1179.07C1240 1178 1236 1168.27 1231.07 1157.6C1219.73 1132.4 1211.2 1112 1209.47 1106C1207.87 1100.13 1204.13 1102.27 1257.73 1079.73C1280.67 1070.27 1303.2 1060.53 1308 1058C1320.27 1051.87 1321.07 1057.47 1294.53 970.933C1287.33 947.333 1281.33 927.066 1281.33 926.133C1281.33 925.066 1282.67 924 1284.4 923.6C1286 923.2 1298.4 918.933 1312 914C1325.6 909.2 1348.67 900.933 1363.33 895.733C1378 890.533 1393.73 884.666 1398.13 882.666L1406.4 878.933L1405.2 872.533C1404.53 868.933 1401.6 859.066 1398.8 850.666C1395.87 842.266 1386.53 812.533 1378.13 784.666C1369.6 756.8 1361.2 729.333 1359.47 723.733L1356.27 713.466L1360.4 712.133C1362.8 711.466 1376.4 707.733 1390.67 704C1404.93 700.133 1428.13 693.6 1442 689.2C1471.73 680.133 1656 618.533 1675.33 611.333C1692.93 604.666 1706.67 597.733 1706.67 595.333C1706.67 588.4 1693.2 554.133 1675.6 516.666C1666.93 498.133 1603.07 367.733 1574.53 310.266L1564.8 290.4L1560.4 291.066C1554.53 292 1544.13 297.466 1490.53 327.6C1452.67 348.8 1421.47 368.4 1288.8 454C1202.53 509.733 1129.07 557.466 1125.6 560C1122.13 562.666 1119.2 566 1118.93 567.466C1118.67 569.066 1122.67 575.866 1128.8 584.666C1145.33 608.4 1286.67 821.333 1289.47 827.066C1290.93 829.866 1292 832.4 1291.73 832.666C1291.47 832.8 1285.6 834.933 1278.67 837.333C1271.73 839.733 1252.27 847.066 1235.33 853.6C1218.53 860.133 1196.93 868.533 1187.33 872.133C1177.87 875.866 1169.2 879.6 1168.13 880.666C1165.73 883.066 1167.07 887.866 1176.27 910C1195.6 956 1220 1016.93 1220 1018.93C1220 1020.4 1208.8 1026.8 1181.6 1040.67C1160.53 1051.47 1142.53 1060.93 1141.6 1061.73C1138.93 1063.87 1140.27 1067.33 1157.33 1102.67C1173.2 1135.47 1178.67 1148 1178.67 1151.2C1178.67 1152.93 1131.73 1176.4 1125.07 1178C1120.67 1179.07 1121.47 1181.47 1114.67 1142C1109.07 1109.07 1102.8 1080.13 1092.67 1040.67C1087.07 1018.67 1071.07 950.666 1061.73 910C1046.13 840.666 1024.27 705.6 1015.33 622C1002.27 500.4 1001.33 495.6 976.533 431.733C970.4 415.733 965.333 402.133 965.333 401.466C965.333 400.8 968.133 399.866 971.733 399.466C987.333 397.2 1041.6 381.733 1083.33 367.6C1107.33 359.466 1162.13 335.333 1184.67 323.066C1222.27 302.666 1272.93 269.066 1306 242.933C1323.2 229.2 1381.2 172.133 1393.47 156.666C1408 138.533 1407.73 137.333 1389.07 137.333C1381.47 137.333 1367.87 138 1358.67 138.666C1349.47 139.466 1328.27 140.533 1311.33 141.333C1265.6 143.333 1246.93 145.066 1224 149.466C1178.27 158.4 1109.87 176.933 1075.33 189.733C1012.4 213.333 927.333 258.533 879.6 293.866C874 298 868.133 301.333 866.667 301.333C865.2 301.333 854.133 297.2 842.133 292.133C793.733 271.6 748.4 259.733 698.667 254.4C674.533 251.866 617.467 252.266 593.333 255.066C543.2 261.066 506.533 270.133 456.133 289.2C446.267 292.933 437.733 296 437.333 296C436.8 296 434.933 294 433.2 291.466C426.933 282.666 387.067 239.066 363.333 215.2C339.2 191.066 323.867 177.6 288 149.2C259.067 126.133 252.4 121.466 206.667 92.3997C165.867 66.3997 144.533 53.8663 129.333 47.0663C64.8001 18.1329 34.9334 6.13293 17.3334 2.13293C6.13342 -0.533691 1.46675 -0.533691 0.400081 2.13293Z" fill="#4E4E4E"/>
</svg>
